<svg width="809" height="189" viewBox="0 0 809 189" fill="none" xmlns="http://www.w3.org/2000/svg">
<path d="M301.208 69.576C306.669 69.576 311.533 70.728 315.8 73.032C320.067 75.2507 323.437 78.6213 325.912 83.144C328.387 87.6667 329.624 93.1707 329.624 99.656V141H318.104V101.32C318.104 94.3227 316.355 88.9893 312.856 85.32C309.443 81.5653 304.792 79.688 298.904 79.688C292.845 79.688 288.024 81.6507 284.44 85.576C280.856 89.416 279.064 95.0053 279.064 102.344V141H267.544V101.32C267.544 94.3227 265.795 88.9893 262.296 85.32C258.883 81.5653 254.232 79.688 248.344 79.688C242.285 79.688 237.464 81.6507 233.88 85.576C230.296 89.416 228.504 95.0053 228.504 102.344V141H216.856V70.856H228.504V80.968C230.808 77.2987 233.88 74.4827 237.72 72.52C241.645 70.5573 245.955 69.576 250.648 69.576C256.536 69.576 261.741 70.8987 266.264 73.544C270.787 76.1893 274.157 80.072 276.376 85.192C278.339 80.2427 281.581 76.4027 286.104 73.672C290.627 70.9413 295.661 69.576 301.208 69.576ZM412.731 103.24C412.731 105.459 412.603 107.805 412.347 110.28H356.283C356.71 117.192 359.056 122.611 363.323 126.536C367.675 130.376 372.923 132.296 379.067 132.296C384.102 132.296 388.283 131.144 391.611 128.84C395.024 126.451 397.414 123.293 398.779 119.368H411.323C409.446 126.109 405.691 131.613 400.059 135.88C394.427 140.061 387.43 142.152 379.067 142.152C372.411 142.152 366.438 140.659 361.147 137.672C355.942 134.685 351.846 130.461 348.859 125C345.872 119.453 344.379 113.053 344.379 105.8C344.379 98.5467 345.83 92.1893 348.731 86.728C351.632 81.2667 355.686 77.0853 360.891 74.184C366.182 71.1973 372.24 69.704 379.067 69.704C385.723 69.704 391.611 71.1547 396.731 74.056C401.851 76.9573 405.776 80.968 408.507 86.088C411.323 91.1227 412.731 96.84 412.731 103.24ZM400.699 100.808C400.699 96.3707 399.718 92.5733 397.755 89.416C395.792 86.1733 393.104 83.7413 389.691 82.12C386.363 80.4133 382.651 79.56 378.555 79.56C372.667 79.56 367.632 81.4373 363.451 85.192C359.355 88.9467 357.008 94.152 356.411 100.808H400.699ZM492.106 103.24C492.106 105.459 491.978 107.805 491.722 110.28H435.658C436.085 117.192 438.431 122.611 442.698 126.536C447.05 130.376 452.298 132.296 458.442 132.296C463.477 132.296 467.658 131.144 470.986 128.84C474.399 126.451 476.789 123.293 478.154 119.368H490.698C488.821 126.109 485.066 131.613 479.434 135.88C473.802 140.061 466.805 142.152 458.442 142.152C451.786 142.152 445.813 140.659 440.522 137.672C435.317 134.685 431.221 130.461 428.234 125C425.247 119.453 423.754 113.053 423.754 105.8C423.754 98.5467 425.205 92.1893 428.106 86.728C431.007 81.2667 435.061 77.0853 440.266 74.184C445.557 71.1973 451.615 69.704 458.442 69.704C465.098 69.704 470.986 71.1547 476.106 74.056C481.226 76.9573 485.151 80.968 487.882 86.088C490.698 91.1227 492.106 96.84 492.106 103.24ZM480.074 100.808C480.074 96.3707 479.093 92.5733 477.13 89.416C475.167 86.1733 472.479 83.7413 469.066 82.12C465.738 80.4133 462.026 79.56 457.93 79.56C452.042 79.56 447.007 81.4373 442.826 85.192C438.73 88.9467 436.383 94.152 435.786 100.808H480.074ZM521.689 80.456V121.8C521.689 125.213 522.414 127.645 523.865 129.096C525.316 130.461 527.833 131.144 531.417 131.144H539.993V141H529.497C523.012 141 518.148 139.507 514.905 136.52C511.662 133.533 510.041 128.627 510.041 121.8V80.456H500.953V70.856H510.041V53.192H521.689V70.856H539.993V80.456H521.689ZM588.922 69.576C594.213 69.576 598.991 70.728 603.258 73.032C607.525 75.2507 610.853 78.6213 613.242 83.144C615.717 87.6667 616.954 93.1707 616.954 99.656V141H605.434V101.32C605.434 94.3227 603.685 88.9893 600.186 85.32C596.687 81.5653 591.909 79.688 585.85 79.688C579.706 79.688 574.799 81.608 571.13 85.448C567.546 89.288 565.754 94.8773 565.754 102.216V141H554.106V46.28H565.754V80.84C568.058 77.256 571.215 74.4827 575.226 72.52C579.322 70.5573 583.887 69.576 588.922 69.576ZM698.189 70.856V141H686.541V130.632C684.322 134.216 681.208 137.032 677.197 139.08C673.272 141.043 668.92 142.024 664.141 142.024C658.68 142.024 653.773 140.915 649.421 138.696C645.069 136.392 641.613 132.979 639.053 128.456C636.578 123.933 635.341 118.429 635.341 111.944V70.856H646.861V110.408C646.861 117.32 648.61 122.653 652.109 126.408C655.608 130.077 660.386 131.912 666.445 131.912C672.674 131.912 677.581 129.992 681.165 126.152C684.749 122.312 686.541 116.723 686.541 109.384V70.856H698.189ZM729.504 83.912C731.893 79.7307 735.392 76.3173 740 73.672C744.608 71.0267 749.856 69.704 755.744 69.704C762.059 69.704 767.733 71.1973 772.768 74.184C777.803 77.1707 781.771 81.3947 784.672 86.856C787.573 92.232 789.024 98.504 789.024 105.672C789.024 112.755 787.573 119.069 784.672 124.616C781.771 130.163 777.76 134.472 772.64 137.544C767.605 140.616 761.973 142.152 755.744 142.152C749.685 142.152 744.352 140.829 739.744 138.184C735.221 135.539 731.808 132.168 729.504 128.072V141H717.856V46.28H729.504V83.912ZM777.12 105.672C777.12 100.381 776.053 95.7733 773.92 91.848C771.787 87.9227 768.885 84.936 765.216 82.888C761.632 80.84 757.664 79.816 753.312 79.816C749.045 79.816 745.077 80.8827 741.408 83.016C737.824 85.064 734.923 88.0933 732.704 92.104C730.571 96.0293 729.504 100.595 729.504 105.8C729.504 111.091 730.571 115.741 732.704 119.752C734.923 123.677 737.824 126.707 741.408 128.84C745.077 130.888 749.045 131.912 753.312 131.912C757.664 131.912 761.632 130.888 765.216 128.84C768.885 126.707 771.787 123.677 773.92 119.752C776.053 115.741 777.12 111.048 777.12 105.672Z" fill="black"/>
<rect y="41" width="50" height="106" fill="#FF0080"/>
<path d="M122 41C149.614 41 172 63.3858 172 91V147H122V41Z" fill="#FF0080"/>
<path d="M61 41C88.6142 41 111 63.3858 111 91V147H61V41Z" fill="#FF0080"/>
</svg>
